# xmcd CD database file generated by Grip 3.0.5
# 
# Track frame offsets:
#       150
#       11534
#       28414
#       42258
#       53111
#       63905
#       78445
#       89233
#       100295
#       112638
#       126146
#       140303
#       152373
#       162987
#       172904
#       182398
# 
# Disc length: 2619 seconds
# 
# Revision: 1
# Processed by: cddbd v1.5.1PL0 Copyright (c) Steve Scherf et al.
# Submitted via: Grip 3.0.5
# 
DISCID=c20a3910
DTITLE=Big Boy Bloater And His Southside Stompers - You Better Believe It!
DYEAR=2001
DGENRE=Blues
TTITLE0=You Better Believe It!
TTITLE1=Rock-A-Bye Baby
TTITLE2=Just One More Time
TTITLE3=Rock That Boogie
TTITLE4=You Don't Hit The Spot
TTITLE5=Stayin' Home Baby
TTITLE6=Early Times
TTITLE7=I Hear You Knocking
TTITLE8=That's All
TTITLE9=You're Going Back To Baltimore
TTITLE10=Plantation Boogie
TTITLE11=Take The First Train Outta Town
TTITLE12=Lovin' Machine
TTITLE13=Wear Your Black Dress
TTITLE14=Where You At?
TTITLE15=Complicated Woman
EXTD=
EXTT0=
EXTT1=
EXTT2=
EXTT3=
EXTT4=
EXTT5=
EXTT6=
EXTT7=
EXTT8=
EXTT9=
EXTT10=
EXTT11=
EXTT12=
EXTT13=
EXTT14=
EXTT15=
PLAYORDER=
